<svg width="20" height="14" viewBox="0 0 20 14" xmlns="http://www.w3.org/2000/svg">
    <path d="M3 2v7-7 7c.02.563.219 1.031.594 1.406S4.438 10.98 5 11h13c.563-.02 1.031-.219 1.406-.594S19.98 9.562 20 9V2c-.02-.563-.219-1.031-.594-1.406S18.563.02 18 0H5c-.563.02-1.031.219-1.406.594S3.02 1.438 3 2zm2 5c.563.02 1.031.219 1.406.594S6.98 8.437 7 9H5V7zm2-5c-.02.563-.219 1.031-.594 1.406S5.563 3.98 5 4V2h2zm11 5v2-2 2h-2c.02-.563.219-1.031.594-1.406S17.437 7.02 18 7zm-2-5h2-2 2v2c-.563-.02-1.031-.219-1.406-.594S16.02 2.562 16 2zM9 5.5c.02-.938.438-1.656 1.25-2.156.833-.459 1.667-.459 2.5 0 .813.5 1.23 1.219 1.25 2.156-.02.938-.438 1.656-1.25 2.156-.833.459-1.667.459-2.5 0C9.437 7.156 9.02 6.438 9 5.5zM1.5 2.75c-.042-.458-.292-.708-.75-.75-.458.042-.708.292-.75.75v7.5c.02 1.063.385 1.948 1.094 2.656.708.709 1.593 1.073 2.656 1.094h12.5c.458-.042.708-.292.75-.75-.042-.458-.292-.708-.75-.75H3.75c-.646-.02-1.177-.24-1.594-.656-.416-.417-.635-.948-.656-1.594v-7.5z" fill="#EDEDED" fill-rule="nonzero"/>
</svg>
