<svg width="18" height="16" viewBox="0 0 18 16" xmlns="http://www.w3.org/2000/svg">
    <path d="M18 8c-.02.27-.125.5-.313.688A1.056 1.056 0 0 1 17 9h-1l.031 5c-.02.083-.031.167-.031.25v.5c0 .354-.125.646-.375.875-.23.25-.52.375-.875.375h-2.5c-.354 0-.646-.125-.875-.375-.25-.23-.375-.52-.375-.875V12a.973.973 0 0 0-.281-.719A.973.973 0 0 0 10 11H8a.973.973 0 0 0-.719.281A.973.973 0 0 0 7 12v2.75c0 .354-.125.646-.375.875-.23.25-.52.375-.875.375h-2.5c-.354 0-.646-.125-.875-.375-.25-.23-.375-.52-.375-.875V9H1a1.09 1.09 0 0 1-.719-.312.973.973 0 0 1-.281-.72c0-.27.104-.52.313-.75l8-6.968C8.541.063 8.77-.02 9 0c.25 0 .469.073.656.219l8 7.031c.25.208.365.458.344.75z" fill="#EDEDED" fill-rule="nonzero"/>
</svg>
