<svg width="20" height="16" viewBox="0 0 20 16" xmlns="http://www.w3.org/2000/svg">
    <path d="M4.5 0c.938.02 1.656.438 2.156 1.25.459.833.459 1.667 0 2.5-.5.813-1.218 1.23-2.156 1.25-.938-.02-1.656-.438-2.156-1.25-.459-.833-.459-1.667 0-2.5C2.844.437 3.563.02 4.5 0zM16 0c.938.02 1.656.438 2.156 1.25.459.833.459 1.667 0 2.5-.5.813-1.218 1.23-2.156 1.25-.938-.02-1.656-.438-2.156-1.25-.459-.833-.459-1.667 0-2.5C14.344.437 15.063.02 16 0zM0 9.344c.02-.959.344-1.75.969-2.375S2.385 6.02 3.344 6h1.312c.5 0 .969.104 1.407.313C6.02 6.542 6 6.77 6 7c.042 1.23.49 2.23 1.344 3H.656C.26 9.958.042 9.74 0 9.344zM12.656 10c.854-.77 1.302-1.77 1.344-3 0-.23-.02-.458-.063-.688A3.23 3.23 0 0 1 15.345 6h1.312c.959.02 1.75.344 2.375.969s.948 1.416.969 2.375c-.042.396-.26.614-.656.656h-6.688zM7 7c0-.542.135-1.042.406-1.5A3.007 3.007 0 0 1 10 4a3.007 3.007 0 0 1 2.594 1.5c.27.458.406.958.406 1.5s-.135 1.042-.406 1.5A3.007 3.007 0 0 1 10 10a3.007 3.007 0 0 1-2.594-1.5A2.896 2.896 0 0 1 7 7zm-3 8.156c.02-1.166.427-2.146 1.219-2.937.791-.792 1.77-1.198 2.937-1.219h3.688c1.166.02 2.146.427 2.937 1.219.792.791 1.198 1.77 1.219 2.937-.042.521-.323.802-.844.844H4.844c-.521-.042-.802-.323-.844-.844z" fill="#FFF" fill-rule="nonzero"/>
</svg>
