<svg width="20" height="20" viewBox="-2 -4 20 20" xmlns="http://www.w3.org/2000/svg">
    <path d="M12.695 1.862A1.13 1.13 0 0 0 13 1.083a1.13 1.13 0 0 0-.305-.778A1.13 1.13 0 0 0 11.917 0a1.13 1.13 0 0 0-.779.305L.305 11.138a1.13 1.13 0 0 0-.305.779c0 .293.102.553.305.778.225.203.485.305.778.305.294 0 .553-.102.779-.305L12.695 1.862zm-8.362.305C4.311 1.354 3.95.734 3.25.305c-.722-.407-1.444-.407-2.167 0C.383.734.023 1.355 0 2.167c.023.812.384 1.433 1.083 1.862.723.406 1.445.406 2.167 0 .7-.43 1.06-1.05 1.083-1.862zM13 10.833c-.023-.812-.384-1.433-1.083-1.862-.723-.406-1.445-.406-2.167 0-.7.43-1.06 1.05-1.083 1.862.022.813.383 1.433 1.083 1.862.722.407 1.444.407 2.167 0 .7-.429 1.06-1.05 1.083-1.862z" fill="#EDEDED" fill-rule="nonzero"/>
</svg>
