<svg width="218" height="205" viewBox="0 0 218 205" xmlns="http://www.w3.org/2000/svg">
    <g fill="#FFF" fill-rule="evenodd">
        <path d="M62.937 122.973c.158 2.93 3.93 4.028 5.595 1.623 5.382-7.771 13.203-13.966 22.881-17.283 22.97-7.876 48.479 3.812 57.698 26.42a47.047 47.047 0 0 1 2.699 9.19c.541 2.922 4.412 3.522 5.774.891 6.6-12.745 7.75-28.273 1.739-42.707-10.264-24.645-38.334-37.105-63.318-28.12-.344.123-.682.249-1.022.38-20.8 7.986-33.196 28.396-32.046 49.606"/>
        <path d="m136.447 10.757.015.017c.936 1.129 47.475 57.928-5.071 127.248-.384-.335-19.436-16.77-43.879-8.586 0 0-19.34-80.362 48.935-118.68zm-14.63 28.473c-7.069 2.713-10.599 10.644-7.885 17.713 2.676 6.973 10.427 10.503 17.42 7.995l.291-.107c6.972-2.677 10.501-10.428 7.993-17.422l-.108-.291c-2.677-6.973-10.427-10.504-17.42-7.996l-.292.108z"/>
        <path d="M79.756 147.42c-3.946 11.16-4.15 19.168-1.647 33.362.718 4.073-5.84 6.903-9.967 8.266-.89.292-.812 1.555.103 1.743 16.457 3.385 37.65-1.828 50.293-16.99a31.369 31.369 0 0 0 4.083-6.259c3.592-7.308 3.449-14.603 2.434-20.03a19.42 19.42 0 0 0-.35-.991c-4.69-12.216-18.511-18.28-30.866-13.537a24.007 24.007 0 0 0-14.083 14.436m1.227 12.478c.167-8.106 4.314-14.325 6.358-16.908a1.738 1.738 0 0 1 2.422-.293 1.7 1.7 0 0 1 .404 2.229c-6.413 10.618-4.352 22.548-4.134 27.818.228 5.484-4.786 9.639-4.786 9.639 2.036-4.23-.486-11.71-.264-22.485M19.247 91.162l-5.483 6.46 8.397 1.131 6.46 5.483 1.132-8.397 5.483-6.46-8.397-1.131-6.46-5.484zM183.345 84.373l-3.814 4.494 5.842.787 4.494 3.815.787-5.842 3.815-4.494-5.842-.787-4.494-3.815zM152.987 9.381l-2.622 3.09 4.016.54 3.09 2.624.541-4.017 2.623-3.09-4.016-.54-3.09-2.623z"/>
    </g>
</svg>
