<svg width="69" height="51" viewBox="0 0 69 51" xmlns="http://www.w3.org/2000/svg" xmlns:xlink="http://www.w3.org/1999/xlink">
    <defs>
        <path d="M0 5.744c0 3.172 15.298 5.744 34.168 5.744 18.871 0 34.169-2.572 34.169-5.744C68.337 2.572 53.039 0 34.168 0 15.298 0 0 2.572 0 5.744" id="antkvo3lha"/>
        <path d="M0 0v1.248h10.193L10.68 1A1.11 1.11 0 0 0 11.29 0H0z" id="3e18vci96c"/>
        <path d="m0 .978 10.68 5.459.034.02h.577a1.11 1.11 0 0 0-.611-.999L0 0v.978z" id="fcma5lqxve"/>
        <path d="M7.179 1.227A7.179 7.179 0 0 0 0 8.406c0 .324.024.642.065.955A7.178 7.178 0 0 1 7.18 3.137c.677 0 1.227-.55 1.227-1.227V0c0 .678-.55 1.227-1.227 1.227" id="e58t9wu2rg"/>
        <path d="M0 10.712v1.91C0 6.707 4.796 1.91 10.712 1.91c5.917 0 10.713 4.796 10.713 10.713v-1.91C21.425 4.795 16.629 0 10.712 0 4.796 0 0 4.796 0 10.712" id="ekwauznc1i"/>
        <path d="M0 1.575v4.598a1.574 1.574 0 0 0 3.149 0V1.575a1.575 1.575 0 1 0-3.149 0" id="8ldt193hik"/>
        <path d="M0 1.173v2.3h2.346v-2.3C2.346.527 1.82 0 1.173 0 .527 0 0 .527 0 1.173" id="tbc7cw2f3n"/>
        <path d="M0 4.58 2.74 0A7.172 7.172 0 0 0 0 4.58" id="1uklzbmy5p"/>
        <path d="M8.406 6.626c0 .677-.55 1.227-1.227 1.227a7.145 7.145 0 0 0-4.35 1.469l-2.74 4.58c-.058.368-.089.745-.089 1.13 0 1.609.53 3.095 1.424 4.292 3.222-.015 7.461-.947 9.744-5.207C15.17 6.645 8.406 0 8.406 0v6.626z" id="cmqf5gb8ts"/>
        <path d="M.224 16.866a1.56 1.56 0 0 0 .163 1.832l9.927-16.593s3.491 3.43 3.973 8.133C14.883 4.49 10.314 0 10.314 0L.224 16.866z" id="v9rkwvqsmv"/>
        <linearGradient x1="50.002%" y1="-17.181%" x2="50.002%" y2="76.264%" id="x9nzyzq17l">
            <stop stop-color="#FBF6F2" offset="0%"/>
            <stop stop-color="#67AFC3" offset="100%"/>
        </linearGradient>
        <linearGradient x1="-.003%" y1="50%" x2="99.998%" y2="50%" id="w46fwlgloq">
            <stop stop-color="#FBF6F2" offset="0%"/>
            <stop stop-color="#67AFC3" offset="100%"/>
        </linearGradient>
        <linearGradient x1="58.186%" y1="113.886%" x2="45.104%" y2="30.39%" id="ra989plqxt">
            <stop stop-color="#FBF6F2" offset="0%"/>
            <stop stop-color="#3B3B3A" offset="100%"/>
        </linearGradient>
    </defs>
    <g fill="none" fill-rule="evenodd">
        <g transform="translate(.405 38.92)">
            <mask id="4plf8oprrb" fill="#fff">
                <use xlink:href="#antkvo3lha"/>
            </mask>
            <path d="M0 5.744c0 3.172 15.298 5.744 34.168 5.744 18.871 0 34.169-2.572 34.169-5.744C68.337 2.572 53.039 0 34.168 0 15.298 0 0 2.572 0 5.744" mask="url(#4plf8oprrb)"/>
        </g>
        <path d="m47.254 23.952 10.68-5.458a1.11 1.11 0 0 0 .611-1h-11.29v6.458z" fill="#A7A7A7"/>
        <g transform="translate(47.254 17.495)">
            <mask id="la1g2up70d" fill="#fff">
                <use xlink:href="#3e18vci96c"/>
            </mask>
            <path d="M0 0v1.248h10.193L10.68 1A1.11 1.11 0 0 0 11.29 0H0z" mask="url(#la1g2up70d)"/>
        </g>
        <path d="m57.934 16.495-10.68-5.458v6.458h11.291a1.11 1.11 0 0 0-.611-1" fill="#A7A7A7"/>
        <g transform="translate(47.254 11.037)">
            <mask id="gejdx2feyf" fill="#fff">
                <use xlink:href="#fcma5lqxve"/>
            </mask>
            <path d="m0 .978 10.68 5.459.034.02h.577a1.11 1.11 0 0 0-.611-.999L0 0v.978z" mask="url(#gejdx2feyf)"/>
        </g>
        <path d="m31.163 34.839-.568 9.46-.728-.727h4.002a.728.728 0 0 1 0 1.455h-4.002a.726.726 0 0 1-.725-.68l-.003-.047-.569-9.461a1.299 1.299 0 1 1 2.593 0M37.562 34.839l-.808 9.46-.728-.727h4.003a.728.728 0 0 1 0 1.455h-4.003a.725.725 0 0 1-.722-.66l-.006-.067-.808-9.461a1.542 1.542 0 1 1 3.072 0" fill="#A7A7A7"/>
        <path d="M37.226.408c-5.916 0-10.712 4.796-10.712 10.712v13.273c0 .678-.55 1.227-1.227 1.227a7.179 7.179 0 1 0 0 14.357H37.77c5.616 0 10.169-4.552 10.169-10.168V11.12c0-5.916-4.796-10.712-10.713-10.712" fill="#FFF"/>
        <g transform="translate(18.108 24.393)">
            <mask id="12nx4vet5h" fill="#fff">
                <use xlink:href="#e58t9wu2rg"/>
            </mask>
            <path d="M7.179 1.227A7.179 7.179 0 0 0 0 8.406c0 .324.024.642.065.955A7.178 7.178 0 0 1 7.18 3.137c.677 0 1.227-.55 1.227-1.227V0c0 .678-.55 1.227-1.227 1.227" mask="url(#12nx4vet5h)"/>
        </g>
        <g transform="translate(26.514 .408)">
            <mask id="cqmvn9nxoj" fill="#fff">
                <use xlink:href="#ekwauznc1i"/>
            </mask>
            <path d="M0 10.712v1.91C0 6.707 4.796 1.91 10.712 1.91c5.917 0 10.713 4.796 10.713 10.713v-1.91C21.425 4.795 16.629 0 10.712 0 4.796 0 0 4.796 0 10.712" mask="url(#cqmvn9nxoj)"/>
        </g>
        <path d="M37.226.408c-.787 0-1.553.087-2.293.248a16.102 16.102 0 0 0-2.498 8.653c0 8.777 6.941 15.892 15.504 15.892V11.12c0-5.917-4.796-10.713-10.713-10.713" fill="#E8E8E8"/>
        <g transform="translate(40.028 5.444)">
            <mask id="k3azclq37m" fill="#fff">
                <use xlink:href="#8ldt193hik"/>
            </mask>
            <path d="M0 1.575v4.598a1.574 1.574 0 0 0 3.149 0V1.575a1.575 1.575 0 1 0-3.149 0" fill="url(#x9nzyzq17l)" mask="url(#k3azclq37m)"/>
        </g>
        <path d="M41.495 12.785c-.611-.055-1.065-.595-1.065-1.208v-4.52c0-.613.454-1.152 1.065-1.207a1.175 1.175 0 0 1 1.281 1.168v4.598c0 .683-.586 1.231-1.281 1.169" fill="#3C3C3A"/>
        <g transform="translate(40.43 5.845)">
            <mask id="inf1sui8bo" fill="#fff">
                <use xlink:href="#tbc7cw2f3n"/>
            </mask>
            <path d="M0 1.173v2.3h2.346v-2.3C2.346.527 1.82 0 1.173 0 .527 0 0 .527 0 1.173" mask="url(#inf1sui8bo)"/>
        </g>
        <g fill="#FFF">
            <path d="M42.592 7.142c0 .243-.224.44-.5.44s-.5-.197-.5-.44.224-.44.5-.44.5.197.5.44M42.36 8.299c0 .13-.12.235-.268.235-.147 0-.267-.106-.267-.235 0-.13.12-.236.267-.236.148 0 .268.106.268.236"/>
        </g>
        <g transform="translate(18.197 27.089)">
            <mask id="yyx5m4hf7r" fill="#fff">
                <use xlink:href="#1uklzbmy5p"/>
            </mask>
            <path d="M0 4.58 2.74 0A7.172 7.172 0 0 0 0 4.58" fill="url(#w46fwlgloq)" mask="url(#yyx5m4hf7r)"/>
        </g>
        <g transform="translate(18.108 17.767)">
            <mask id="mv17wa5pbu" fill="#fff">
                <use xlink:href="#cmqf5gb8ts"/>
            </mask>
            <path d="M8.406 6.626c0 .677-.55 1.227-1.227 1.227a7.145 7.145 0 0 0-4.35 1.469l-2.74 4.58c-.058.368-.089.745-.089 1.13 0 1.609.53 3.095 1.424 4.292 3.222-.015 7.461-.947 9.744-5.207C15.17 6.645 8.406 0 8.406 0v6.626z" fill="url(#ra989plqxt)" mask="url(#mv17wa5pbu)"/>
        </g>
        <path d="M26.514 16.013 16.424 32.88a1.568 1.568 0 0 0 1.192 2.363c3.215.328 8.885.068 11.66-5.113 4.003-7.471-2.762-14.117-2.762-14.117" fill="#E8E8E8"/>
        <g transform="translate(16.2 16.013)">
            <mask id="86087nrjiw" fill="#fff">
                <use xlink:href="#v9rkwvqsmv"/>
            </mask>
            <path d="M.224 16.866a1.56 1.56 0 0 0 .163 1.832l9.927-16.593s3.491 3.43 3.973 8.133C14.883 4.49 10.314 0 10.314 0L.224 16.866z" mask="url(#86087nrjiw)"/>
        </g>
    </g>
</svg>
