<svg width="77" height="34" viewBox="0 0 77 34" xmlns="http://www.w3.org/2000/svg">
    <g fill-rule="nonzero" fill="none">
        <path d="M20.322 17.397c-.084-3.364-3.856-6.239-6.539-6.17C11.102 11.295.951 17.89.951 17.89c4.647 1.862 10.515 6.068 13.151 6.001 2.637-.067 6.305-3.13 6.22-6.494" fill="#C4C4C4"/>
        <path d="M20.322 17.426c-.07-2.77-3.19-5.138-5.406-5.082-2.219.056-10.612 5.487-10.612 5.487 3.843 1.533 8.695 4.998 10.875 4.943 2.181-.056 5.214-2.579 5.143-5.348" fill="#DCDCDC"/>
        <path d="M20.323 17.645c-.054-2.078-2.448-3.853-4.15-3.811-1.702.042-8.144 4.116-8.144 4.116 2.95 1.149 6.673 3.747 8.347 3.706 1.673-.04 4-1.933 3.947-4.011" fill="#FFF"/>
        <path d="M19.147 15.01c.432-2.156-1.595-4.53-3.34-4.873-1.745-.341-9.268 2.403-9.268 2.403 2.738 1.854 5.927 5.379 7.644 5.715 1.715.336 4.533-1.09 4.964-3.245" fill="#C4C4C4"/>
        <path d="M19.157 14.863c.356-1.764-1.312-3.706-2.75-3.986-1.438-.28-7.633 1.967-7.633 1.967 2.256 1.516 4.882 4.4 6.295 4.675 1.413.275 3.733-.891 4.088-2.656" fill="#DCDCDC"/>
        <path d="M19.168 15.09c.28-1.372-1.031-2.882-2.16-3.1-1.13-.218-5.998 1.529-5.998 1.529 1.771 1.18 3.835 3.422 4.946 3.636 1.11.214 2.934-.693 3.212-2.065" fill="#FFF"/>
        <path d="M19.78 16.114c-.575-1.303-2.543-1.83-3.601-1.375-1.06.453-4.052 4.651-4.052 4.651 2.154-.01 5.173.703 6.214.257 1.042-.446 2.013-2.229 1.439-3.533" fill="#C4C4C4"/>
        <path d="M19.44 16.157c-.464-1.024-2.058-1.437-2.916-1.08-.858.356-3.279 3.654-3.279 3.654 1.744-.007 4.187.552 5.03.203.844-.35 1.63-1.752 1.165-2.777" fill="#DCDCDC"/>
        <path d="M19.472 15.938c-.354-.838-1.573-1.175-2.23-.884-.654.292-2.507 2.99-2.507 2.99 1.334-.006 3.203.452 3.848.165.644-.286 1.245-1.433.89-2.27" fill="#FFF"/>
        <path d="M36.343 9.106s-2.4-4.212-6.647-6.292C24.307.173 16.052-.525 15.528.502c-.526 1.027 3.444 2.27 5.772 4.341 3.85 3.427 3.62 6.382 3.62 6.382l11.423-2.12" fill="#C2C2C2"/>
        <path d="M36.343 24.894s-2.4 4.211-6.647 6.293c-5.389 2.64-13.644 3.338-14.168 2.31-.526-1.027 3.444-2.268 5.772-4.34 3.85-3.427 3.62-6.383 3.62-6.383l11.423 2.12" fill="#9C9C9C"/>
        <path d="M18.46 22.906c1.445.465 11.624 3.594 24.269 3.594 10.456 0 16.389-6.034 19.32-9.686-2.931-3.653-8.864-9.687-19.32-9.687-12.645 0-22.824 3.129-24.268 3.595v12.184" fill="#2B2B38"/>
        <path d="M48.366 4.52c-15.982 0-25.471 3.97-27.297 4.562v15.463c1.826.592 11.315 4.563 27.297 4.563 7.044 0 13.677-2.176 18.899-4.91V9.429C62.043 6.695 55.41 4.52 48.366 4.52" fill="#FFF"/>
        <path d="M76.951 16.814c-1.71-2.185-5.162-5.034-9.686-7.451v14.902c4.524-2.417 7.975-5.267 9.686-7.451" fill="#C2C2C2"/>
        <path d="M67.265 24.198v-7.384H21.069v7.731c1.826.592 11.315 4.563 27.297 4.563 7.044 0 13.677-2.176 18.899-4.91" fill="#F0F1F1"/>
        <path d="M52.638 21.238a4.995 4.995 0 1 1 4.924-8.692 4.995 4.995 0 0 1-4.924 8.692m-.699 1.233a6.412 6.412 0 1 0 6.324-11.156 6.412 6.412 0 0 0-6.324 11.156" fill="#2B2B38"/>
        <path d="M49.755 16.995a5.402 5.402 0 1 1 10.1 2.668 5.402 5.402 0 0 1-10.1-2.668m10.345.01a4.942 4.942 0 1 0-7.38 4.295 4.942 4.942 0 0 0 7.38-4.296" fill="#63636D"/>
        <path d="M53.48 12.883c1.712-.595 3.667.002 4.782 1.608.544.786.807 1.695.807 2.595 0 .943-.287 1.876-.839 2.65 0 0-.998-2.576-1.934-3.926-.965-1.393-2.816-2.927-2.816-2.927" fill="#EAEAEA"/>
        <path d="M34.48 17.004v-.007c0-1.004-1.598-1.673-3.74-1.673-2.144 0-14.887.222-14.887 1.673v.007c0 1.45 12.743 1.672 14.887 1.672 2.142 0 3.74-.668 3.74-1.672" fill="#C2C2C2"/>
        <path d="M67.265 16.814v7.45c4.524-2.416 7.975-5.265 9.686-7.45h-9.686M34.48 16.818v-.004H15.853v.004c0 1.61 12.743 1.858 14.887 1.858 2.142 0 3.74-.742 3.74-1.858" fill="#9C9C9C"/>
    </g>
</svg>
