<?xml version="1.0" encoding="UTF-8"?>
<svg width="28px" height="43px" viewBox="0 0 28 43" version="1.1" xmlns="http://www.w3.org/2000/svg" xmlns:xlink="http://www.w3.org/1999/xlink">
    <title>roket</title>
    <g id="Page-1" stroke="none" stroke-width="1" fill="none" fill-rule="evenodd">
        <g id="TG-bot---To-the-moon---gamepley-1" transform="translate(-152, -739)" fill-rule="nonzero">
            <g id="roket" transform="translate(166.2788, 760.621) rotate(17) translate(-166.2788, -760.621)translate(157.8034, 741.621)">
                <path d="M8.67390195,37.9992719 C6.99212832,37.9572627 5.55466834,36.071136 5.58883206,34.7296998 C5.62299578,33.389121 8.92051232,28.3137255 8.92051232,28.3137255 C9.85125833,30.6373764 11.9544802,33.5714466 11.9211777,34.889449 C11.8875882,36.2077373 10.3559627,38.0418526 8.67390195,37.9992719" id="path66" fill="#F05A2A" transform="translate(8.7549, 33.1569) scale(-1, 1) rotate(-180) translate(-8.7549, -33.1569)"></path>
                <path d="M8.68830549,36.3229249 C7.30322657,36.2882243 6.11948744,34.7281408 6.14754772,33.6200334 C6.17560801,32.5104801 8.89080241,28.3137255 8.89080241,28.3137255 C9.65739789,30.235274 11.3899037,32.6614279 11.3624219,33.7513175 C11.3343617,34.8417855 10.0730951,36.3582039 8.68830549,36.3229249" id="path68" fill="#F8EC3A" transform="translate(8.7549, 32.3186) scale(-1, 1) rotate(-180) translate(-8.7549, -32.3186)"></path>
                <path d="M8.79797708,34.4603302 C7.75894218,34.4335457 6.87167959,33.2365966 6.8925166,32.3855415 C6.91335362,31.5344865 8.95031254,28.3137255 8.95031254,28.3137255 C9.52501992,29.7883116 10.8242359,31.6499765 10.8036805,32.4869193 C10.783125,33.3232861 9.83701197,34.4871147 8.79797708,34.4603302" id="path70" fill="#FFFFFF" transform="translate(8.848, 31.3873) scale(-1, 1) rotate(-180) translate(-8.848, -31.3873)"></path>
                <path d="M7.480542,35.1764712 C6.40261501,35.3922359 5.21528815,34.3789682 5.04413939,33.5065033 C4.8732726,32.6337534 6.24556417,28.872549 6.24556417,28.872549 C7.17264342,30.2412443 8.93488348,31.8359653 9.10293069,32.6941789 C9.2709779,33.5518224 8.558469,34.9607064 7.480542,35.1764712" id="path72" fill="#F05A2A" transform="translate(7.0784, 32.0392) scale(-1, 1) rotate(-180) translate(-7.0784, -32.0392)"></path>
                <path d="M7.40710331,34.0639096 C6.52518804,34.2419714 5.55378265,33.4079533 5.41404256,32.6891009 C5.27402016,31.9699613 6.39730468,28.872549 6.39730468,28.872549 C7.15557114,30.0000818 8.59757601,31.3134305 8.73477537,32.0199335 C8.87253935,32.7264364 8.28930089,33.8861351 7.40710331,34.0639096" id="path74" fill="#F8EC3A" transform="translate(7.0784, 31.4804) scale(-1, 1) rotate(-180) translate(-7.0784, -31.4804)"></path>
                <path d="M7.52025467,32.9513894 C6.83452532,33.0916755 6.07928289,32.4359332 5.97017016,31.8712743 C5.86134232,31.3066154 6.73481394,28.872549 6.73481394,28.872549 C7.32482038,29.7581966 8.44614599,30.7902805 8.5529796,31.3455675 C8.6600981,31.9008544 8.2065538,32.8125677 7.52025467,32.9513894" id="path76" fill="#FFFFFF" transform="translate(7.2647, 30.9216) scale(-1, 1) rotate(-180) translate(-7.2647, -30.9216)"></path>
                <path d="M8.03268553,32.3262382 C7.38080119,32.0390373 7.11786589,31.0548063 7.34492028,30.5255527 C7.57168762,29.9957166 9.67057724,28.5 9.67057724,28.5 C9.66512334,29.5768577 10.0222101,31.0862644 9.79917441,31.6067796 C9.57613868,32.127586 8.68456987,32.6134391 8.03268553,32.3262382" id="path78" fill="#F05A2A" transform="translate(8.5686, 30.4559) scale(-1, 1) rotate(-180) translate(-8.5686, -30.4559)"></path>
                <path d="M8.05414246,31.7837925 C7.54212943,31.551558 7.33566812,30.7547484 7.51397562,30.3257636 C7.6920071,29.8967789 9.34121346,28.6862745 9.34121346,28.6862745 C9.33762523,29.55838 9.61723127,30.779847 9.442512,31.2016195 C9.26724069,31.6231035 8.5664315,32.016027 8.05414246,31.7837925" id="path80" fill="#F8EC3A" transform="translate(8.4755, 30.2696) scale(-1, 1) rotate(-180) translate(-8.4755, -30.2696)"></path>
                <path d="M7.94460604,31.0548426 C7.52555274,30.8776008 7.35675924,30.2679923 7.50240224,29.9398517 C7.64833829,29.6125702 8.9975141,28.6862745 8.9975141,28.6862745 C8.99429061,29.3531501 9.22374427,30.2874632 9.08015258,30.609877 C8.93685394,30.9322909 8.36365935,31.232657 7.94460604,31.0548426" id="path82" fill="#FFFFFF" transform="translate(8.2892, 29.8971) scale(-1, 1) rotate(-180) translate(-8.2892, -29.8971)"></path>
                <path d="M4.52830274,30.7352941 C4.52830274,30.7352941 2.42261674,29.5351247 1.38228987,27.4115917 C0.0618233805,24.7173101 -0.286994501,20.5899124 0.226575353,20.3276295 C0.740203557,20.0647657 1.3612546,22.0497506 2.39711767,23.2136129 C4.11028144,25.1384731 5.58823529,25.0234521 5.58823529,25.0234521 L4.52830274,30.7352941" id="path84" fill="#C6421E" transform="translate(2.7941, 25.5196) scale(-1, 1) rotate(-180) translate(-2.7941, -25.5196)"></path>
                <path d="M12.4227092,30.7352941 C12.4227092,30.7352941 14.5280494,29.5351247 15.5687573,27.4115917 C16.8892631,24.7173101 17.2379163,20.5899124 16.7244187,20.3276295 C16.2106293,20.0647657 15.589764,22.0497506 14.5537243,23.2136129 C12.8405095,25.1384731 11.3627451,25.0234521 11.3627451,25.0234521 L12.4227092,30.7352941" id="path86" fill="#AA290B" transform="translate(14.1569, 25.5196) scale(-1, 1) rotate(-180) translate(-14.1569, -25.5196)"></path>
                <g id="g88" transform="translate(8.3824, 18.348) scale(-1, 1) rotate(-180) translate(-8.3824, -18.348)translate(3.5392, 7.451)" fill="#2B2B38">
                    <path d="M7.88940347,0 C8.12201319,0.722187256 9.68627451,5.81162304 9.68627451,12.1341209 C9.68627451,17.3619316 6.66952943,20.3284931 4.84330898,21.7941176 C3.01658897,20.3284931 0,17.3619316 0,12.1341209 C0,5.81162304 1.5642301,0.722187256 1.79718326,0 L7.88940347,0" id="path90"></path>
                </g>
                <g id="g92" transform="translate(8.3824, 16.3922) scale(-1, 1) rotate(-180) translate(-8.3824, -16.3922)translate(2.2353, 4.8431)" fill="#FFFFFF">
                    <path d="M0,13.6488846 C0,5.65763903 1.98560338,0.912933401 2.2810736,0 L10.0127805,0 C10.3089425,0.912933401 12.2941176,5.65763903 12.2941176,13.6488846 C12.2941176,17.1708512 11.2063234,20.4872657 9.83916827,23.0980392 L2.45485054,23.0980392 C1.08786015,20.4872657 0,17.1708512 0,13.6488846" id="path94"></path>
                </g>
                <g id="g96" transform="translate(8.3824, 2.4216) scale(-1, 1) rotate(-180) translate(-8.3824, -2.4216)translate(4.6569, 0)" fill="#C6421E">
                    <path d="M3.72561719,4.84313725 C2.63307232,3.98763211 1.20846812,2.26209169 0,0 L7.45098039,0 C6.24247599,2.26209169 4.81787179,3.98763211 3.72561719,4.84313725" id="path98"></path>
                </g>
                <g id="g100" transform="translate(11.4559, 16.3922) scale(-1, 1) rotate(-180) translate(-11.4559, -16.3922)translate(8.3824, 4.8431)" fill="#F0F1F1">
                    <path d="M3.69208314,23.0980392 L0,23.0980392 L0,0 L3.86569722,0 C4.16186243,0.912933401 6.14705882,5.65763903 6.14705882,13.6488846 C6.14705882,17.1708512 5.0592529,20.4872657 3.69208314,23.0980392" id="path102"></path>
                </g>
                <g id="g104" transform="translate(8.3824, 10.9902) scale(-1, 1) rotate(-180) translate(-8.3824, -10.9902)translate(5.7745, 8.3824)" fill="#A5DCF0">
                    <path d="M2.60782796,5.21568627 C1.16764929,5.21568627 0,4.04794549 0,2.6076914 C0,1.16774078 1.16764929,0 2.60782796,0 C4.04831009,0 5.21568627,1.16774078 5.21568627,2.6076914 C5.21568627,4.04794549 4.04831009,5.21568627 2.60782796,5.21568627" id="path106"></path>
                </g>
                <g id="g108" transform="translate(8.3824, 10.9902) scale(-1, 1) rotate(-180) translate(-8.3824, -10.9902)translate(5.2157, 7.8235)" fill="#2B2B38">
                    <path d="M5.31257271,1.95058013 C4.64112268,0.765256969 3.13589752,0.348526962 1.9502598,1.02061089 C0.765159986,1.69206197 0.348652129,3.19823876 1.020735,4.38292907 C1.69250146,5.56825224 3.19760005,5.9843494 4.38292135,5.31258189 C5.56824266,4.64113081 5.98465559,3.13558687 5.31257271,1.95058013 M5.92105453,1.60536188 C6.78330774,3.12672701 6.24918538,5.05881009 4.72813906,5.92106466 C3.20677632,6.78331923 1.27453805,6.24919603 0.412126623,4.7278309 C-0.450000026,3.20646578 0.0843754729,1.27469912 1.60548508,0.412128125 C3.12703767,-0.44981002 5.05911773,0.0839967534 5.92105453,1.60536188" id="path110"></path>
                </g>
                <g id="g112" transform="translate(8.3824, 10.9902) scale(-1, 1) rotate(-180) translate(-8.3824, -10.9902)translate(5.9608, 8.5686)" fill="#B9DFED">
                    <path d="M2.41896557,0 C2.01451262,0 1.60489773,0.10141742 1.22777268,0.315183478 C0.0645453473,0.974396705 -0.344249703,2.45254041 0.315324395,3.615197 C0.761072843,4.40163747 1.57999897,4.84313725 2.42352022,4.84313725 C2.82827681,4.84313725 3.23819534,4.74171984 3.61532039,4.52795378 C4.77888173,3.86874055 5.18728205,2.39090049 4.52776868,1.22794025 C4.08202023,0.44180343 3.26279046,0 2.41896557,0 M2.42534208,4.52309546 C1.98748836,4.52309546 1.54538363,4.39009896 1.16370393,4.11378204 C0.382429577,3.54809146 0.0925412648,2.5557797 0.38182229,1.68705145 C0.38182229,1.68705145 1.12787402,2.62622534 1.8049987,3.11600467 C2.46147564,3.59120905 3.7133972,4.09768886 3.7133972,4.09768886 C3.33718308,4.37734587 2.8835399,4.52309546 2.42534208,4.52309546" id="path114"></path>
                </g>
                <g id="g116" transform="translate(8.4755, 10.8971) scale(-1, 1) rotate(-180) translate(-8.4755, -10.8971)translate(5.7745, 8.1961)" fill="#63636D">
                    <path d="M2.69870324,0 C2.24725688,0 1.78989502,0.113332203 1.36927154,0.351516641 C0.0720326385,1.08693055 -0.383741382,2.73491778 0.351368967,4.03263378 C0.848395844,4.90940159 1.76280823,5.40196078 2.70337338,5.40196078 C3.15481974,5.40196078 3.61187027,5.28862858 4.03249374,5.05044414 C5.32985718,4.31471888 5.78597368,2.667043 5.05027178,1.36901565 C4.55336944,0.491936486 3.63926839,0 2.69870324,0 M2.70306204,5.17249421 C1.84188918,5.17249421 1.00593506,4.72196757 0.551126199,3.91930158 C-0.1221827,2.73242697 0.295078276,1.22361417 1.48260015,0.550782053 C1.86741925,0.332524157 2.28555199,0.228843872 2.6983919,0.228843872 C3.55956476,0.228843872 4.39583022,0.679993219 4.85070135,1.48234786 C5.52413479,2.66953382 5.10693608,4.17803526 3.91947648,4.85086738 C3.53434603,5.06881392 3.11590195,5.17249421 2.70306204,5.17249421" id="path118"></path>
                </g>
                <g id="g120" transform="translate(8.1029, 10.3382) scale(-1, 1) rotate(-180) translate(-8.1029, -10.3382)translate(6.3333, 8.9412)" fill="#DCEFF6">
                    <path d="M0.112993661,0 C-0.184733646,0.855979026 0.113614185,1.83351896 0.916882212,2.39079697 C1.30967376,2.66304586 1.76420743,2.79411765 2.21439743,2.79411765 C2.68568523,2.79411765 3.15231911,2.65056283 3.53921569,2.37504458 C3.53921569,2.37504458 2.25131859,1.8760207 1.57618872,1.40790717 C0.879961048,0.925230107 0.112993661,0 0.112993661,0" id="path122"></path>
                </g>
                <path d="M8.47757363,30.5490196 L8.47396234,30.5490196 C7.97199344,30.5490196 7.6372549,29.7499991 7.6372549,28.6787409 C7.6372549,27.6069119 7.74864922,21.2352941 8.47396234,21.2352941 L8.47562909,21.2352941 L8.47757363,21.2352941 C9.20233117,21.2352941 9.31372549,27.6069119 9.31372549,28.6787409 C9.31372549,29.7499991 8.97954254,30.5490196 8.47757363,30.5490196" id="path124" fill="#C6421E" transform="translate(8.4755, 25.8922) scale(-1, 1) rotate(-180) translate(-8.4755, -25.8922)"></path>
                <g id="g126" transform="translate(10.2451, 2.4216) scale(-1, 1) rotate(-180) translate(-10.2451, -2.4216)translate(8.3824, 0)" fill="#AA290B">
                    <path d="M0,0 L3.7254902,0 C2.5171329,2.26209169 1.09270211,3.98763211 0.000580452646,4.84313725 L0,4.84278286 L0,0" id="path128"></path>
                </g>
                <path d="M8.3845139,30.5490196 L8.38235294,30.5490196 L8.38235294,21.2352941 L8.3845139,21.2352941 C9.18993351,21.2352941 9.31372549,27.6069119 9.31372549,28.6787409 C9.31372549,29.7499991 8.94234956,30.5490196 8.3845139,30.5490196" id="path130" fill="#AA290B" transform="translate(8.848, 25.8922) scale(-1, 1) rotate(-180) translate(-8.848, -25.8922)"></path>
            </g>
        </g>
    </g>
</svg>