<svg width="68" height="84" viewBox="0 0 68 84" xmlns="http://www.w3.org/2000/svg">
    <g fill-rule="nonzero" fill="none">
        <path d="M24.98 58.331c-2.955-1.609-7.33.22-8.613 2.578-1.281 2.357-.645 14.445-.645 14.445 3.936-3.094 10.513-6.073 11.773-8.389 1.26-2.317.441-7.025-2.515-8.634" fill="#C4C4C4"/>
        <path d="M25.005 58.346c-2.434-1.325-6.044.193-7.103 2.14-1.061 1.95-.555 11.935-.555 11.935 3.25-2.562 8.676-5.032 9.718-6.947 1.042-1.917.374-5.805-2.06-7.128" fill="#DCDCDC"/>
        <path d="M25.195 58.455c-1.826-.993-4.56.193-5.375 1.688-.815 1.495-.507 9.11-.507 9.11 2.47-1.979 6.582-3.904 7.383-5.374.8-1.47.326-4.431-1.5-5.424" fill="#FFF"/>
        <path d="M22.326 58.156c-1.652-1.452-4.721-.884-5.89.456-1.169 1.34-2.553 9.227-2.553 9.227 2.974-1.443 7.621-2.443 8.77-3.761 1.15-1.318 1.324-4.47-.327-5.922" fill="#C4C4C4"/>
        <path d="M22.204 58.074c-1.35-1.19-3.866-.718-4.827.388-.962 1.105-2.114 7.593-2.114 7.593 2.441-1.194 6.252-2.027 7.196-3.114.945-1.085 1.095-3.677-.255-4.867" fill="#DCDCDC"/>
        <path d="M22.405 58.178c-1.048-.929-3.012-.548-3.765.32-.753.87-1.675 5.959-1.675 5.959 1.908-.944 4.882-1.61 5.623-2.465.74-.855.867-2.888-.183-3.814" fill="#FFF"/>
        <path d="M23.598 58.16c-1.416-.155-2.855 1.287-2.991 2.431-.138 1.144 2.002 5.834 2.002 5.834 1.068-1.87 3.195-4.128 3.33-5.253.134-1.125-.924-2.858-2.34-3.012" fill="#C4C4C4"/>
        <path d="M23.466 58.476c-1.12-.11-2.274 1.063-2.394 1.985-.12.92 1.526 4.667 1.526 4.667.865-1.514 2.571-3.35 2.69-4.256.118-.905-.703-2.286-1.822-2.396" fill="#DCDCDC"/>
        <path d="M23.292 58.338c-.903-.112-1.805.775-1.88 1.489-.075.713 1.335 3.666 1.335 3.666.662-1.158 1.993-2.547 2.067-3.249.074-.701-.618-1.795-1.522-1.906" fill="#FFF"/>
        <path d="M25.81 40.311s-4.847-.027-8.772 2.611c-4.982 3.346-9.713 10.146-9.086 11.114.627.969 3.687-1.848 6.645-2.828 4.892-1.62 7.337.056 7.337.056l3.876-10.953" fill="#C2C2C2"/>
        <path d="M39.484 48.206s2.446 4.184 2.125 8.903c-.407 5.987-3.93 13.484-5.082 13.425-1.153-.059-.243-4.118-.874-7.17-1.042-5.047-3.717-6.325-3.717-6.325l7.548-8.833" fill="#9C9C9C"/>
        <path d="M28.82 62.698c1.126-1.018 8.925-8.269 15.247-19.22 5.228-9.055 2.97-17.21 1.272-21.574-4.63.711-12.821 2.833-18.049 11.888-6.322 10.95-8.703 21.33-9.021 22.814l10.552 6.092" fill="#2B2B38"/>
        <path d="M27.85 27.606c-7.99 13.841-9.296 24.045-9.698 25.921l13.392 7.732c1.426-1.285 9.61-7.518 17.6-21.36 3.522-6.1 4.955-12.931 5.197-18.82l-12.79-7.385c-4.978 3.155-10.179 7.812-13.7 13.912" fill="#FFF"/>
        <path d="M52.79 8.998c-2.748.39-6.941 1.953-11.296 4.663l12.905 7.45c.17-5.126-.573-9.539-1.61-12.113" fill="#C2C2C2"/>
        <path d="m54.341 21.078-6.394-3.692-23.098 40.007 6.695 3.866c1.426-1.285 9.61-7.518 17.6-21.36 3.522-6.1 4.955-12.931 5.197-18.82" fill="#F0F1F1"/>
        <path d="M44.465 32.266a4.995 4.995 0 1 1-5.065-8.61 4.995 4.995 0 0 1 5.065 8.61m.718 1.221a6.412 6.412 0 1 0-6.5-11.054 6.412 6.412 0 0 0 6.5 11.054" fill="#2B2B38"/>
        <path d="M39.349 32.641a5.402 5.402 0 1 1 7.36-7.414 5.402 5.402 0 0 1-7.36 7.414m5.18-8.954a4.942 4.942 0 1 0 .03 8.54 4.942 4.942 0 0 0-.03-8.54" fill="#63636D"/>
        <path d="M37.65 27.359c.341-1.78 1.835-3.175 3.784-3.337a4.546 4.546 0 0 1 2.65.599 4.575 4.575 0 0 1 1.876 2.05s-2.73-.423-4.367-.287c-1.689.14-3.942.975-3.942.975" fill="#EAEAEA"/>
        <path d="m31.72 45.874-.007-.004c-.87-.502-2.248.547-3.32 2.403-1.071 1.856-7.25 13.004-5.994 13.729l.003.002.004.002c1.255.724 7.82-10.2 8.891-12.057 1.072-1.855 1.292-3.573.422-4.075" fill="#C2C2C2"/>
        <path d="m47.947 17.386 6.452 3.726c.17-5.127-.572-9.54-1.608-12.114h-.002l-4.842 8.388M31.558 45.78l-.004-.002-9.313 16.132.003.002c1.395.806 7.981-10.106 9.053-11.963 1.072-1.855 1.227-3.61.261-4.168" fill="#9C9C9C"/>
    </g>
</svg>
